<svg xmlns="http://www.w3.org/2000/svg" width="64" height="64" viewBox="0 0 64 64">
  <g>
    <path fill="#9cc5e5" d="M29.69.1h4.216l.528.069c1.561.238 3.17.479 4.7.87C44.864 2.45 50.157 5.654 54.139 10a30.342 30.342 0 0 1 7.602 15.457c.482 2.184.331 4.238.353 6.477.042 2.337-.378 4.7-1.02 6.942-1.275 4.584-3.64 8.883-6.869 12.385-.224.295-.57.562-.535.966.388.533.859 1.008 1.284 1.515-1.322-.897-2.279-2.032-3.442-3.13-1.277-1.204-2.436-2.55-3.784-3.673-1.086.876-2.081 1.842-3.239 2.626-1.215.83-2.477 1.59-3.715 2.378-.993.338-1.951.744-2.924 1.127-4.945 1.706-10.343 2.03-15.42.708-8.52-2.049-15.751-8.573-18.664-16.837-1.03-2.664-1.42-5.384-1.643-8.214-.109-1.726.191-3.364.348-5.073.49-3.004 1.474-5.952 2.948-8.62 1.41-2.516 3.184-5.039 5.482-6.82C16.021 3.408 22.72.668 29.691.1Zm0 0"/>
    <path fill="#549ecf" d="M46.128 12.92c6.477 5.19 9.725 14.126 7.957 22.25-.822 4.278-3.01 8.451-6.088 11.536-.701-.482-1.296-1.06-1.876-1.676-1.237-1.227-2.445-2.481-3.708-3.68-.963.91-1.942 1.784-3.06 2.495-3.231 2.167-7.033 3.125-10.898 3.147-3.44-.166-6.798-1.136-9.714-2.991-4.261-2.606-7.313-6.963-8.434-11.821-.614-2.134-.498-4.2-.42-6.407.412-3.379 1.69-6.707 3.748-9.427 2.913-3.505 6.73-6.193 11.11-7.52 7.169-2.41 15.588-.74 21.383 4.093Zm0 0"/>
    <path fill="#9cc5e5" d="M44.882 22.202c2.053 3.151 2.785 7.153 2.114 10.84-.535 3.03-2.023 5.764-4.104 8.01a8.987 8.987 0 0 1-1.733-1.489c-1.225-1.305-2.566-2.488-3.734-3.838 1.155-1.609 1.938-3.38 1.853-5.398-.182-2.318-1.322-4.629-3.304-5.918-1.554-1.113-3.489-1.562-5.38-1.309-1.503.18-2.948.913-4.116 1.855-.206.337.208.559.38.81 3.389 3.4 6.816 6.765 10.168 10.2-2.138 2.097-5.046 3.287-8.034 3.346-4.259.028-8.298-2.45-10.264-6.213-1.033-2.136-1.581-4.695-1.126-7.047.331-2.305 1.428-4.523 3.09-6.155.824-.824 1.58-1.63 2.587-2.234 1.669-.968 3.364-1.809 5.266-2.212 6.095-1.525 13.117 1.338 16.337 6.752zm0 0"/>
    <path fill="#549ecf" d="M47.728 46.939c1.348 1.123 2.507 2.469 3.784 3.673 1.163 1.098 2.12 2.233 3.442 3.13 1.217 1.468 2.975 2.594 3.978 4.207-2.09 1.958-4.031 4.069-6.118 6.03-4.005-4.022-8.025-8.025-12.04-12.036 1.238-.788 2.5-1.548 3.715-2.378 1.158-.784 2.153-1.75 3.24-2.626zm0 0"/>
  </g>
</svg>
